<svg xmlns="http://www.w3.org/2000/svg" viewBox="0 0 32 32"><defs><style>.cls-1{fill:#017bc7;}</style></defs><title>Layer 1</title><g id="Layer_2" data-name="Layer 2"><g id="Layer_1-2" data-name="Layer 1"><path class="cls-1" d="M7,8H1A1,1,0,0,1,0,7V4A4,4,0,0,1,8,4V7A1,1,0,0,1,7,8ZM2,6H6V4A2,2,0,0,0,2,4Z"/><path class="cls-1" d="M27,26a1,1,0,0,1-1-1V4a2,2,0,0,0-2-2,1,1,0,0,1,0-2,4,4,0,0,1,4,4V25A1,1,0,0,1,27,26Z"/><path class="cls-1" d="M10,32a4,4,0,0,1-4-4V25a1,1,0,0,1,2,0v3a2,2,0,0,0,4,0V25a1,1,0,0,1,2,0v3A4,4,0,0,1,10,32Z"/><path class="cls-1" d="M28,32a1,1,0,0,1,0-2,2,2,0,0,0,2-2V25a1,1,0,0,1,2,0v3A4,4,0,0,1,28,32Z"/><path class="cls-1" d="M24,2H4A1,1,0,0,1,4,0H24a1,1,0,0,1,0,2Z"/><path class="cls-1" d="M28,32H10a1,1,0,0,1,0-2H28a1,1,0,0,1,0,2Z"/><path class="cls-1" d="M7,26a1,1,0,0,1-1-1V7A1,1,0,0,1,8,7V25A1,1,0,0,1,7,26Z"/><path class="cls-1" d="M31,26H13a1,1,0,0,1,0-2H31a1,1,0,0,1,0,2Z"/><path class="cls-1" d="M23,8H11a1,1,0,0,1,0-2H23a1,1,0,0,1,0,2Z"/><path class="cls-1" d="M23,12H11a1,1,0,0,1,0-2H23a1,1,0,0,1,0,2Z"/><path class="cls-1" d="M23,16H11a1,1,0,0,1,0-2H23a1,1,0,0,1,0,2Z"/><path class="cls-1" d="M17,20H11a1,1,0,0,1,0-2h6a1,1,0,0,1,0,2Z"/></g></g></svg>